<svg xmlns="http://www.w3.org/2000/svg" xmlns:xlink="http://www.w3.org/1999/xlink" width="830" zoomAndPan="magnify" viewBox="0 0 622.5 566.249966" height="755" preserveAspectRatio="xMidYMid meet" version="1.0"><defs><clipPath id="9f99f146d8"><path d="M 37.867188 50 L 331 50 L 331 528.476562 L 37.867188 528.476562 Z M 37.867188 50 " clip-rule="nonzero"/></clipPath><clipPath id="ef060b1afe"><path d="M 37.867188 78 L 331 78 L 331 169 L 37.867188 169 Z M 37.867188 78 " clip-rule="nonzero"/></clipPath><clipPath id="9f8c45ca59"><path d="M 37.867188 85 L 331 85 L 331 175 L 37.867188 175 Z M 37.867188 85 " clip-rule="nonzero"/></clipPath><clipPath id="735b37a50c"><path d="M 37.867188 50 L 331 50 L 331 528.476562 L 37.867188 528.476562 Z M 37.867188 50 " clip-rule="nonzero"/></clipPath><clipPath id="350c41c048"><path d="M 308.25 176.570312 L 584.296875 176.570312 L 584.296875 476.789062 L 308.25 476.789062 Z M 308.25 176.570312 " clip-rule="nonzero"/></clipPath><clipPath id="b31734aab8"><path d="M 313.5 176.570312 L 578.859375 176.570312 C 580.253906 176.570312 581.585938 177.125 582.570312 178.105469 C 583.554688 179.089844 584.109375 180.425781 584.109375 181.816406 L 584.109375 471.167969 C 584.109375 472.558594 583.554688 473.894531 582.570312 474.878906 C 581.585938 475.859375 580.253906 476.414062 578.859375 476.414062 L 313.5 476.414062 C 312.105469 476.414062 310.773438 475.859375 309.789062 474.878906 C 308.804688 473.894531 308.25 472.558594 308.25 471.167969 L 308.25 181.816406 C 308.25 180.425781 308.804688 179.089844 309.789062 178.105469 C 310.773438 177.125 312.105469 176.570312 313.5 176.570312 " clip-rule="nonzero"/></clipPath><clipPath id="5d5a54f92e"><path d="M 308.25 176.570312 L 584.109375 176.570312 L 584.109375 476.414062 L 308.25 476.414062 Z M 308.25 176.570312 " clip-rule="nonzero"/></clipPath><clipPath id="c82c5216b2"><path d="M 313.5 176.570312 L 578.859375 176.570312 C 580.253906 176.570312 581.585938 177.125 582.570312 178.105469 C 583.554688 179.089844 584.109375 180.425781 584.109375 181.816406 L 584.109375 471.167969 C 584.109375 472.558594 583.554688 473.894531 582.570312 474.878906 C 581.585938 475.859375 580.253906 476.414062 578.859375 476.414062 L 313.5 476.414062 C 312.105469 476.414062 310.773438 475.859375 309.789062 474.878906 C 308.804688 473.894531 308.25 472.558594 308.25 471.167969 L 308.25 181.816406 C 308.25 180.425781 308.804688 179.089844 309.789062 178.105469 C 310.773438 177.125 312.105469 176.570312 313.5 176.570312 " clip-rule="nonzero"/></clipPath><clipPath id="5941e333c2"><path d="M 312.429688 106.820312 L 461.519531 106.820312 L 461.519531 190.773438 L 312.429688 190.773438 Z M 312.429688 106.820312 " clip-rule="nonzero"/></clipPath><clipPath id="72424edff5"><path d="M 332.472656 214.769531 L 562.414062 214.769531 L 562.414062 291.792969 L 332.472656 291.792969 Z M 332.472656 214.769531 " clip-rule="nonzero"/></clipPath><clipPath id="8f3ab01b4d"><path d="M 341.464844 214.769531 L 553.191406 214.769531 C 558.15625 214.769531 562.183594 218.796875 562.183594 223.765625 L 562.183594 282.792969 C 562.183594 287.761719 558.15625 291.789062 553.191406 291.789062 L 341.464844 291.789062 C 336.5 291.789062 332.472656 287.761719 332.472656 282.792969 L 332.472656 223.765625 C 332.472656 218.796875 336.5 214.769531 341.464844 214.769531 " clip-rule="nonzero"/></clipPath><clipPath id="a758f8d6fc"><path d="M 332.480469 214.769531 L 561.851562 214.769531 L 561.851562 291.980469 L 332.480469 291.980469 Z M 332.480469 214.769531 " clip-rule="nonzero"/></clipPath><clipPath id="65bc675271"><path d="M 341.464844 214.769531 L 552.859375 214.769531 C 557.820312 214.769531 561.839844 218.804688 561.839844 223.785156 L 561.839844 282.960938 C 561.839844 287.941406 557.820312 291.980469 552.859375 291.980469 L 341.464844 291.980469 C 336.503906 291.980469 332.480469 287.941406 332.480469 282.960938 L 332.480469 223.785156 C 332.480469 218.804688 336.503906 214.769531 341.464844 214.769531 " clip-rule="nonzero"/></clipPath><clipPath id="5e9de3b251"><path d="M 350.996094 326.492188 L 386.976562 326.492188 L 386.976562 357 L 350.996094 357 Z M 350.996094 326.492188 " clip-rule="nonzero"/></clipPath><clipPath id="ef1e8fba4b"><path d="M 351 326.492188 L 386.972656 326.492188 L 386.972656 357.226562 L 351 357.226562 Z M 351 326.492188 " clip-rule="nonzero"/></clipPath><clipPath id="aaabaa6f92"><path d="M 386.976562 326.492188 L 422.957031 326.492188 L 422.957031 357 L 386.976562 357 Z M 386.976562 326.492188 " clip-rule="nonzero"/></clipPath><clipPath id="8ed704f165"><path d="M 386.980469 326.492188 L 422.953125 326.492188 L 422.953125 357.226562 L 386.980469 357.226562 Z M 386.980469 326.492188 " clip-rule="nonzero"/></clipPath><clipPath id="1981388e27"><path d="M 422.957031 326.492188 L 458.9375 326.492188 L 458.9375 357 L 422.957031 357 Z M 422.957031 326.492188 " clip-rule="nonzero"/></clipPath><clipPath id="09f9c150fe"><path d="M 422.960938 326.492188 L 458.933594 326.492188 L 458.933594 357.226562 L 422.960938 357.226562 Z M 422.960938 326.492188 " clip-rule="nonzero"/></clipPath><clipPath id="2cb6453a99"><path d="M 458.9375 326.492188 L 494.917969 326.492188 L 494.917969 357 L 458.9375 357 Z M 458.9375 326.492188 " clip-rule="nonzero"/></clipPath><clipPath id="b17f2ece4e"><path d="M 458.941406 326.492188 L 494.914062 326.492188 L 494.914062 357.226562 L 458.941406 357.226562 Z M 458.941406 326.492188 " clip-rule="nonzero"/></clipPath><clipPath id="f91fa7d9e7"><path d="M 494.917969 326.492188 L 530.902344 326.492188 L 530.902344 357 L 494.917969 357 Z M 494.917969 326.492188 " clip-rule="nonzero"/></clipPath><clipPath id="258a278fbb"><path d="M 494.925781 326.492188 L 530.894531 326.492188 L 530.894531 357.226562 L 494.925781 357.226562 Z M 494.925781 326.492188 " clip-rule="nonzero"/></clipPath><clipPath id="4b5b92f030"><path d="M 350.996094 357.035156 L 386.976562 357.035156 L 386.976562 387.578125 L 350.996094 387.578125 Z M 350.996094 357.035156 " clip-rule="nonzero"/></clipPath><clipPath id="f90f2f5f23"><path d="M 351 357.035156 L 386.972656 357.035156 L 386.972656 387.769531 L 351 387.769531 Z M 351 357.035156 " clip-rule="nonzero"/></clipPath><clipPath id="33811dfe85"><path d="M 386.976562 357.035156 L 422.957031 357.035156 L 422.957031 387.578125 L 386.976562 387.578125 Z M 386.976562 357.035156 " clip-rule="nonzero"/></clipPath><clipPath id="b5b6d85f0b"><path d="M 386.980469 357.035156 L 422.953125 357.035156 L 422.953125 387.769531 L 386.980469 387.769531 Z M 386.980469 357.035156 " clip-rule="nonzero"/></clipPath><clipPath id="03f20467ca"><path d="M 422.957031 357.035156 L 458.9375 357.035156 L 458.9375 387.578125 L 422.957031 387.578125 Z M 422.957031 357.035156 " clip-rule="nonzero"/></clipPath><clipPath id="93864e6b70"><path d="M 422.960938 357.035156 L 458.933594 357.035156 L 458.933594 387.769531 L 422.960938 387.769531 Z M 422.960938 357.035156 " clip-rule="nonzero"/></clipPath><clipPath id="5f8bd5ca48"><path d="M 458.9375 357.035156 L 494.917969 357.035156 L 494.917969 387.578125 L 458.9375 387.578125 Z M 458.9375 357.035156 " clip-rule="nonzero"/></clipPath><clipPath id="863b91ce51"><path d="M 458.941406 357.035156 L 494.914062 357.035156 L 494.914062 387.769531 L 458.941406 387.769531 Z M 458.941406 357.035156 " clip-rule="nonzero"/></clipPath><clipPath id="b075b26d23"><path d="M 494.917969 357.035156 L 530.902344 357.035156 L 530.902344 387.578125 L 494.917969 387.578125 Z M 494.917969 357.035156 " clip-rule="nonzero"/></clipPath><clipPath id="c0974b21b0"><path d="M 494.925781 357.035156 L 530.894531 357.035156 L 530.894531 387.769531 L 494.925781 387.769531 Z M 494.925781 357.035156 " clip-rule="nonzero"/></clipPath><clipPath id="2e4cc4327b"><path d="M 350.996094 398.628906 L 386.976562 398.628906 L 386.976562 429 L 350.996094 429 Z M 350.996094 398.628906 " clip-rule="nonzero"/></clipPath><clipPath id="18ee8b56cf"><path d="M 351 398.628906 L 386.972656 398.628906 L 386.972656 429.363281 L 351 429.363281 Z M 351 398.628906 " clip-rule="nonzero"/></clipPath><clipPath id="a303d7eaf9"><path d="M 386.960938 398.628906 L 422.941406 398.628906 L 422.941406 429 L 386.960938 429 Z M 386.960938 398.628906 " clip-rule="nonzero"/></clipPath><clipPath id="f02b48a209"><path d="M 386.964844 398.628906 L 422.9375 398.628906 L 422.9375 429.363281 L 386.964844 429.363281 Z M 386.964844 398.628906 " clip-rule="nonzero"/></clipPath><clipPath id="26aa213245"><path d="M 505.027344 398.628906 L 530.902344 398.628906 L 530.902344 424.503906 L 505.027344 424.503906 Z M 505.027344 398.628906 " clip-rule="nonzero"/></clipPath><clipPath id="817eabdb64"><path d="M 517.964844 398.628906 C 510.820312 398.628906 505.027344 404.421875 505.027344 411.566406 C 505.027344 418.710938 510.820312 424.503906 517.964844 424.503906 C 525.109375 424.503906 530.902344 418.710938 530.902344 411.566406 C 530.902344 404.421875 525.109375 398.628906 517.964844 398.628906 " clip-rule="nonzero"/></clipPath><clipPath id="2a4149ea27"><path d="M 505.027344 398.628906 L 531.261719 398.628906 L 531.261719 424.863281 L 505.027344 424.863281 Z M 505.027344 398.628906 " clip-rule="nonzero"/></clipPath><clipPath id="75541dcaa4"><path d="M 518.144531 398.628906 C 510.898438 398.628906 505.027344 404.5 505.027344 411.746094 C 505.027344 418.992188 510.898438 424.863281 518.144531 424.863281 C 525.390625 424.863281 531.261719 418.992188 531.261719 411.746094 C 531.261719 404.5 525.390625 398.628906 518.144531 398.628906 " clip-rule="nonzero"/></clipPath><clipPath id="bbb30ca1a3"><path d="M 368.984375 442.1875 L 440.199219 442.1875 L 440.199219 460 L 368.984375 460 Z M 368.984375 442.1875 " clip-rule="nonzero"/></clipPath><clipPath id="e5ddd12b34"><path d="M 373.484375 442.1875 L 435.617188 442.1875 C 438.101562 442.1875 440.117188 444.203125 440.117188 446.6875 L 440.117188 455.226562 C 440.117188 457.710938 438.101562 459.722656 435.617188 459.722656 L 373.484375 459.722656 C 371 459.722656 368.984375 457.710938 368.984375 455.226562 L 368.984375 446.6875 C 368.984375 444.203125 371 442.1875 373.484375 442.1875 " clip-rule="nonzero"/></clipPath><clipPath id="184e21ac70"><path d="M 368.984375 442.191406 L 440.199219 442.191406 L 440.199219 459.429688 L 368.984375 459.429688 Z M 368.984375 442.191406 " clip-rule="nonzero"/></clipPath><clipPath id="ec58ea0bcc"><path d="M 373.488281 442.191406 L 435.695312 442.191406 C 438.183594 442.191406 440.199219 444.167969 440.199219 446.613281 L 440.199219 455.007812 C 440.199219 457.449219 438.183594 459.429688 435.695312 459.429688 L 373.488281 459.429688 C 371 459.429688 368.984375 457.449219 368.984375 455.007812 L 368.984375 446.613281 C 368.984375 444.167969 371 442.191406 373.488281 442.191406 " clip-rule="nonzero"/></clipPath><clipPath id="5cc656742e"><path d="M 453.007812 442.1875 L 524.222656 442.1875 L 524.222656 460 L 453.007812 460 Z M 453.007812 442.1875 " clip-rule="nonzero"/></clipPath><clipPath id="7054fd2efa"><path d="M 457.507812 442.1875 L 519.640625 442.1875 C 522.125 442.1875 524.140625 444.203125 524.140625 446.6875 L 524.140625 455.226562 C 524.140625 457.710938 522.125 459.722656 519.640625 459.722656 L 457.507812 459.722656 C 455.023438 459.722656 453.007812 457.710938 453.007812 455.226562 L 453.007812 446.6875 C 453.007812 444.203125 455.023438 442.1875 457.507812 442.1875 " clip-rule="nonzero"/></clipPath><clipPath id="8368f44edd"><path d="M 453.007812 442.191406 L 524.222656 442.191406 L 524.222656 459.429688 L 453.007812 459.429688 Z M 453.007812 442.191406 " clip-rule="nonzero"/></clipPath><clipPath id="75d5542fc1"><path d="M 457.511719 442.191406 L 519.71875 442.191406 C 522.207031 442.191406 524.222656 444.167969 524.222656 446.613281 L 524.222656 455.007812 C 524.222656 457.449219 522.207031 459.429688 519.71875 459.429688 L 457.511719 459.429688 C 455.023438 459.429688 453.007812 457.449219 453.007812 455.007812 L 453.007812 446.613281 C 453.007812 444.167969 455.023438 442.191406 457.511719 442.191406 " clip-rule="nonzero"/></clipPath></defs><path fill="#231f20" d="M 292.1875 70.957031 L 68.277344 70.957031 C 66.941406 70.953125 65.625 71.101562 64.320312 71.402344 C 63.019531 71.703125 61.769531 72.148438 60.570312 72.738281 C 59.367188 73.328125 58.25 74.042969 57.21875 74.890625 C 56.183594 75.738281 55.257812 76.691406 54.445312 77.75 C 48.820312 83.375 42.84375 93.402344 42.84375 100.007812 L 42.84375 506.246094 C 42.84375 516.078125 52.410156 525.730469 62.191406 525.730469 L 284.363281 525.730469 C 291.117188 525.730469 299.777344 519.054688 304.933594 512.390625 C 307.003906 510.195312 308.425781 507.632812 309.195312 504.714844 C 309.582031 503.515625 309.78125 502.285156 309.796875 501.027344 L 309.796875 88.707031 C 309.796875 88.125 309.769531 87.550781 309.714844 86.972656 C 309.660156 86.398438 309.578125 85.824219 309.464844 85.257812 C 309.355469 84.6875 309.21875 84.128906 309.050781 83.574219 C 308.882812 83.019531 308.691406 82.472656 308.472656 81.9375 C 308.253906 81.402344 308.007812 80.878906 307.734375 80.367188 C 307.464844 79.855469 307.167969 79.359375 306.851562 78.875 C 306.53125 78.394531 306.1875 77.929688 305.820312 77.480469 C 305.457031 77.03125 305.070312 76.601562 304.660156 76.191406 C 304.253906 75.777344 303.828125 75.390625 303.382812 75.019531 C 302.9375 74.652344 302.472656 74.304688 301.992188 73.980469 C 301.511719 73.65625 301.019531 73.359375 300.507812 73.082031 C 300 72.808594 299.476562 72.558594 298.945312 72.335938 C 298.410156 72.109375 297.867188 71.914062 297.3125 71.742188 C 296.761719 71.574219 296.199219 71.429688 295.632812 71.3125 C 295.066406 71.199219 294.496094 71.109375 293.917969 71.050781 C 293.34375 70.992188 292.765625 70.960938 292.1875 70.957031 Z M 292.1875 70.957031 " fill-opacity="1" fill-rule="nonzero"/><path fill="#b0282f" d="M 76.324219 75.339844 L 65.636719 76.210938 C 58.3125 76.210938 47.15625 92.644531 47.15625 100.042969 L 47.15625 506.246094 C 47.15625 513.644531 54.835938 521.382812 62.15625 521.382812 L 284.328125 521.382812 C 291.648438 521.382812 305.414062 508.425781 305.414062 501.027344 L 305.414062 88.707031 C 305.417969 87.832031 305.335938 86.964844 305.171875 86.109375 C 305.003906 85.25 304.757812 84.417969 304.429688 83.605469 C 304.097656 82.796875 303.695312 82.027344 303.210938 81.296875 C 302.730469 80.570312 302.183594 79.894531 301.570312 79.269531 C 300.957031 78.648438 300.289062 78.09375 299.566406 77.601562 C 298.839844 77.113281 298.078125 76.695312 297.273438 76.355469 C 296.46875 76.015625 295.636719 75.757812 294.78125 75.582031 C 293.925781 75.40625 293.0625 75.3125 292.1875 75.304688 " fill-opacity="1" fill-rule="nonzero"/><g clip-path="url(#9f99f146d8)"><path stroke-linecap="butt" transform="matrix(0.869547, 0, 0, 0.869547, -171.498521, 37.480454)" fill="none" stroke-linejoin="miter" d="M 285.002129 43.539211 L 272.711246 44.54099 C 264.288218 44.54099 251.458261 63.440019 251.458261 71.948401 L 251.458261 539.091793 C 251.458261 547.600175 260.290087 556.499385 268.708623 556.499385 L 524.211639 556.499385 C 532.630175 556.499385 548.460975 541.598487 548.460975 533.090105 L 548.460975 58.911799 C 548.465468 57.905528 548.37113 56.908242 548.182454 55.924432 C 547.989286 54.93613 547.706272 53.979274 547.32892 53.044879 C 546.947076 52.114977 546.484371 51.229998 545.927329 50.389941 C 545.374778 49.554377 544.745858 48.777212 544.04057 48.058447 C 543.335282 47.344174 542.567102 46.70627 541.73603 46.140242 C 540.900465 45.578707 540.02447 45.098033 539.09906 44.707205 C 538.17365 44.316376 537.216794 44.019885 536.232985 43.817733 C 535.249175 43.61558 534.256381 43.507765 533.250109 43.498781 " stroke="#231f20" stroke-width="2" stroke-opacity="1" stroke-miterlimit="10"/></g><path fill="#d2232a" d="M 292.1875 75.304688 L 68.277344 75.304688 C 67.402344 75.308594 66.539062 75.398438 65.679688 75.574219 C 64.820312 75.75 63.988281 76.007812 63.183594 76.347656 C 62.375 76.6875 61.609375 77.101562 60.886719 77.589844 C 60.160156 78.082031 59.488281 78.636719 58.875 79.257812 C 58.257812 79.882812 57.707031 80.558594 57.226562 81.289062 C 56.742188 82.019531 56.335938 82.789062 56.007812 83.597656 C 55.675781 84.410156 55.425781 85.246094 55.261719 86.105469 C 55.09375 86.960938 55.015625 87.832031 55.019531 88.707031 L 55.019531 500.15625 C 55.015625 501.03125 55.09375 501.898438 55.261719 502.757812 C 55.425781 503.617188 55.675781 504.453125 56.007812 505.265625 C 56.335938 506.074219 56.742188 506.84375 57.226562 507.574219 C 57.707031 508.304688 58.257812 508.980469 58.875 509.605469 C 59.488281 510.226562 60.160156 510.78125 60.886719 511.273438 C 61.609375 511.761719 62.375 512.175781 63.183594 512.515625 C 63.988281 512.855469 64.820312 513.113281 65.679688 513.289062 C 66.539062 513.464844 67.402344 513.554688 68.277344 513.558594 L 292.1875 513.558594 C 293.0625 513.554688 293.929688 513.464844 294.785156 513.289062 C 295.644531 513.113281 296.476562 512.855469 297.285156 512.515625 C 298.089844 512.175781 298.855469 511.761719 299.582031 511.273438 C 300.308594 510.78125 300.976562 510.226562 301.59375 509.605469 C 302.207031 508.980469 302.757812 508.304688 303.238281 507.574219 C 303.722656 506.84375 304.128906 506.074219 304.460938 505.265625 C 304.789062 504.453125 305.039062 503.617188 305.207031 502.757812 C 305.371094 501.898438 305.453125 501.03125 305.449219 500.15625 L 305.449219 88.707031 C 305.453125 87.832031 305.371094 86.960938 305.207031 86.105469 C 305.039062 85.246094 304.789062 84.410156 304.460938 83.597656 C 304.128906 82.789062 303.722656 82.019531 303.238281 81.289062 C 302.757812 80.558594 302.207031 79.882812 301.59375 79.257812 C 300.976562 78.636719 300.308594 78.082031 299.582031 77.589844 C 298.855469 77.101562 298.089844 76.6875 297.285156 76.347656 C 296.476562 76.007812 295.644531 75.75 294.785156 75.574219 C 293.929688 75.398438 293.0625 75.308594 292.1875 75.304688 Z M 292.1875 75.304688 " fill-opacity="1" fill-rule="nonzero"/><path stroke-linecap="butt" transform="matrix(0.869547, 0, 0, 0.869547, -171.498521, 37.480454)" fill-opacity="1" fill="#ffffff" fill-rule="nonzero" stroke-linejoin="miter" d="M 332.211518 82.720893 C 332.211518 83.722671 332.162102 84.719958 332.063272 85.717244 C 331.964442 86.714531 331.816197 87.707325 331.623029 88.691135 C 331.425368 89.674945 331.182785 90.645278 330.890787 91.602134 C 330.603281 92.563482 330.26636 93.502369 329.880023 94.432271 C 329.498179 95.357681 329.071413 96.26063 328.595231 97.145609 C 328.123541 98.030589 327.611421 98.888614 327.054378 99.719687 C 326.497335 100.555251 325.899862 101.359369 325.261958 102.132042 C 324.628546 102.909207 323.954704 103.650433 323.249415 104.355721 C 322.539635 105.065502 321.798408 105.739344 321.021244 106.372756 C 320.248571 107.01066 319.444453 107.608133 318.608888 108.165176 C 317.777816 108.717727 316.919791 109.234339 316.034811 109.706029 C 315.149832 110.177718 314.246883 110.608978 313.321473 110.990821 C 312.396063 111.372665 311.452684 111.709587 310.491335 112.001585 C 309.534479 112.293583 308.564147 112.536166 307.580337 112.733827 C 306.596527 112.926995 305.608225 113.07524 304.610939 113.17407 C 303.613652 113.272901 302.611873 113.317823 301.610094 113.317823 C 300.608316 113.317823 299.606537 113.272901 298.60925 113.17407 C 297.611964 113.07524 296.623662 112.926995 295.639852 112.733827 C 294.656042 112.536166 293.685709 112.293583 292.728853 112.001585 C 291.767505 111.709587 290.824126 111.372665 289.898716 110.990821 C 288.973306 110.608978 288.070357 110.177718 287.185378 109.706029 C 286.300398 109.234339 285.442372 108.717727 284.6113 108.165176 C 283.775736 107.608133 282.971618 107.01066 282.198945 106.372756 C 281.42178 105.739344 280.680554 105.065502 279.970773 104.355721 C 279.265485 103.650433 278.591643 102.909207 277.953739 102.132042 C 277.320327 101.359369 276.722854 100.555251 276.165811 99.719687 C 275.608768 98.888614 275.096648 98.030589 274.624958 97.145609 C 274.148776 96.26063 273.722009 95.357681 273.340165 94.432271 C 272.953829 93.502369 272.616908 92.563482 272.329402 91.602134 C 272.037404 90.645278 271.794821 89.670452 271.59716 88.691135 C 271.403992 87.707325 271.255747 86.714531 271.156917 85.717244 C 271.058086 84.719958 271.008671 83.722671 271.008671 82.720893 C 271.008671 81.719114 271.058086 80.717335 271.156917 79.720048 C 271.255747 78.722762 271.403992 77.73446 271.59716 76.75065 C 271.794821 75.76684 272.037404 74.796508 272.329402 73.835159 C 272.616908 72.878303 272.953829 71.934924 273.340165 71.009514 C 273.722009 70.084104 274.148776 69.181155 274.624958 68.296176 C 275.096648 67.411196 275.608768 66.553171 276.165811 65.717606 C 276.722854 64.886534 277.320327 64.082416 277.953739 63.309743 C 278.591643 62.532578 279.265485 61.791352 279.970773 61.081571 C 280.680554 60.371791 281.42178 59.702441 282.198945 59.064537 C 282.971618 58.431125 283.775736 57.833652 284.6113 57.276609 C 285.442372 56.719566 286.300398 56.207446 287.185378 55.731264 C 288.070357 55.259574 288.973306 54.832808 289.898716 54.450964 C 290.824126 54.064627 291.767505 53.727706 292.728853 53.435708 C 293.685709 53.148202 294.656042 52.905619 295.639852 52.707958 C 296.623662 52.510298 297.611964 52.366545 298.60925 52.267715 C 299.606537 52.168885 300.608316 52.119469 301.610094 52.119469 C 302.611873 52.119469 303.613652 52.168885 304.610939 52.267715 C 305.608225 52.366545 306.596527 52.510298 307.580337 52.707958 C 308.564147 52.905619 309.534479 53.148202 310.491335 53.435708 C 311.452684 53.727706 312.396063 54.064627 313.321473 54.450964 C 314.246883 54.832808 315.149832 55.259574 316.034811 55.731264 C 316.919791 56.207446 317.777816 56.719566 318.608888 57.276609 C 319.444453 57.833652 320.248571 58.431125 321.021244 59.064537 C 321.798408 59.702441 322.539635 60.371791 323.249415 61.081571 C 323.954704 61.791352 324.628546 62.532578 325.261958 63.309743 C 325.899862 64.082416 326.497335 64.886534 327.054378 65.717606 C 327.611421 66.553171 328.123541 67.411196 328.595231 68.296176 C 329.071413 69.181155 329.498179 70.084104 329.880023 71.009514 C 330.26636 71.934924 330.603281 72.878303 330.890787 73.835159 C 331.182785 74.796508 331.425368 75.76684 331.623029 76.75065 C 331.816197 77.73446 331.964442 78.722762 332.063272 79.720048 C 332.162102 80.717335 332.211518 81.719114 332.211518 82.720893 Z M 332.211518 82.720893 " stroke="#231f20" stroke-width="2" stroke-opacity="1" stroke-miterlimit="10"/><path stroke-linecap="butt" transform="matrix(0.869547, 0, 0, 0.869547, -171.498521, 37.480454)" fill-opacity="1" fill="#00aeef" fill-rule="nonzero" stroke-linejoin="miter" d="M 325.769586 82.720893 C 325.769586 83.511534 325.729155 84.302176 325.652786 85.088325 C 325.576417 85.874474 325.459618 86.656131 325.306881 87.433296 C 325.149651 88.210461 324.960975 88.974149 324.731868 89.733344 C 324.49827 90.49254 324.233225 91.233766 323.932242 91.966008 C 323.626767 92.69825 323.289846 93.412523 322.916987 94.108827 C 322.544127 94.80513 322.139822 95.483465 321.699578 96.14383 C 321.259335 96.799703 320.787645 97.433115 320.28451 98.048558 C 319.785866 98.659508 319.251285 99.243505 318.694242 99.80504 C 318.132707 100.362083 317.54871 100.892172 316.93776 101.395308 C 316.326809 101.898443 315.688905 102.370133 315.033032 102.810376 C 314.372667 103.246128 313.698825 103.654925 312.998029 104.027785 C 312.301725 104.400644 311.587452 104.737565 310.85521 105.04304 C 310.122968 105.344023 309.381742 105.609068 308.622546 105.838174 C 307.867843 106.067281 307.099663 106.260449 306.322498 106.417679 C 305.545333 106.570416 304.763676 106.687216 303.977527 106.763584 C 303.191378 106.839953 302.400736 106.880384 301.610094 106.880384 C 300.819453 106.880384 300.028811 106.839953 299.242662 106.763584 C 298.456513 106.687216 297.674856 106.570416 296.897691 106.417679 C 296.120526 106.260449 295.352346 106.067281 294.597643 105.838174 C 293.838447 105.609068 293.097221 105.344023 292.364979 105.04304 C 291.632737 104.737565 290.918464 104.400644 290.22216 104.027785 C 289.521364 103.654925 288.847522 103.246128 288.187157 102.810376 C 287.531283 102.370133 286.893379 101.898443 286.282429 101.395308 C 285.671479 100.892172 285.087482 100.362083 284.525947 99.80504 C 283.968904 99.243505 283.434323 98.659508 282.935679 98.048558 C 282.432544 97.433115 281.960854 96.799703 281.520611 96.14383 C 281.080367 95.483465 280.676062 94.80513 280.303202 94.108827 C 279.930343 93.412523 279.593422 92.69825 279.287946 91.966008 C 278.986964 91.233766 278.721919 90.49254 278.48832 89.733344 C 278.259214 88.974149 278.070538 88.210461 277.913308 87.433296 C 277.760571 86.656131 277.643771 85.874474 277.567403 85.088325 C 277.491034 84.302176 277.450603 83.511534 277.450603 82.720893 C 277.450603 81.930251 277.491034 81.139609 277.567403 80.35346 C 277.643771 79.562818 277.760571 78.781161 277.913308 78.008489 C 278.070538 77.231324 278.259214 76.463144 278.48832 75.708441 C 278.721919 74.949245 278.986964 74.203526 279.287946 73.475777 C 279.593422 72.743535 279.930343 72.029262 280.303202 71.332958 C 280.676062 70.632162 281.080367 69.953828 281.520611 69.297955 C 281.960854 68.637589 282.432544 68.004178 282.935679 67.393227 C 283.434323 66.782277 283.968904 66.193788 284.525947 65.636745 C 285.087482 65.07521 285.671479 64.545121 286.282429 64.041985 C 286.893379 63.543342 287.531283 63.071652 288.187157 62.631409 C 288.847522 62.191165 289.521364 61.78686 290.22216 61.414 C 290.918464 61.041141 291.632737 60.699728 292.364979 60.398745 C 293.097221 60.097762 293.838447 59.828225 294.597643 59.599118 C 295.352346 59.370012 296.120526 59.176844 296.897691 59.024106 C 297.674856 58.871369 298.456513 58.75457 299.242662 58.678201 C 300.028811 58.59734 300.819453 58.561401 301.610094 58.561401 C 302.400736 58.561401 303.191378 58.59734 303.977527 58.678201 C 304.763676 58.75457 305.545333 58.871369 306.322498 59.024106 C 307.099663 59.176844 307.867843 59.370012 308.622546 59.599118 C 309.381742 59.828225 310.122968 60.097762 310.85521 60.398745 C 311.587452 60.699728 312.301725 61.041141 312.998029 61.414 C 313.698825 61.78686 314.372667 62.191165 315.033032 62.631409 C 315.688905 63.071652 316.326809 63.543342 316.93776 64.041985 C 317.54871 64.545121 318.132707 65.07521 318.694242 65.636745 C 319.251285 66.193788 319.785866 66.782277 320.28451 67.393227 C 320.787645 68.004178 321.259335 68.637589 321.699578 69.297955 C 322.139822 69.953828 322.544127 70.632162 322.916987 71.332958 C 323.289846 72.029262 323.626767 72.743535 323.932242 73.475777 C 324.233225 74.203526 324.49827 74.949245 324.731868 75.708441 C 324.960975 76.463144 325.149651 77.231324 325.306881 78.008489 C 325.459618 78.781161 325.576417 79.562818 325.652786 80.35346 C 325.729155 81.139609 325.769586 81.930251 325.769586 82.720893 Z M 325.769586 82.720893 " stroke="#231f20" stroke-width="2" stroke-opacity="1" stroke-miterlimit="10"/><path stroke-linecap="butt" transform="matrix(0.869547, 0, 0, 0.869547, -171.498521, 37.480454)" fill-opacity="1" fill="#ed1c24" fill-rule="nonzero" stroke-linejoin="miter" d="M 353.069182 62.671839 C 353.069182 63.170482 353.019767 63.669126 352.925429 64.158784 C 352.826598 64.652935 352.687338 65.129117 352.498662 65.591822 C 352.305494 66.05902 352.076387 66.499263 351.802358 66.912553 C 351.528329 67.330335 351.213869 67.716672 350.863471 68.071562 C 350.513073 68.426452 350.135722 68.745404 349.722432 69.023926 C 349.313634 69.302447 348.877883 69.536046 348.41967 69.729214 C 347.96595 69.922382 347.49426 70.066135 347.009094 70.164965 C 346.523927 70.259303 346.034268 70.308718 345.540117 70.308718 C 345.045966 70.308718 344.556308 70.259303 344.071141 70.164965 C 343.585975 70.066135 343.114285 69.922382 342.660565 69.729214 C 342.202352 69.536046 341.766601 69.302447 341.357803 69.023926 C 340.944513 68.745404 340.567162 68.426452 340.216764 68.071562 C 339.866366 67.716672 339.551906 67.330335 339.277877 66.912553 C 339.003848 66.499263 338.770249 66.05902 338.581573 65.591822 C 338.392897 65.129117 338.249144 64.652935 338.154806 64.158784 C 338.060468 63.669126 338.011053 63.170482 338.011053 62.671839 C 338.011053 62.168704 338.060468 61.67006 338.154806 61.180402 C 338.249144 60.686251 338.392897 60.210069 338.581573 59.747364 C 338.770249 59.284659 339.003848 58.844415 339.277877 58.426633 C 339.551906 58.008851 339.866366 57.622515 340.216764 57.267624 C 340.567162 56.912734 340.944513 56.598274 341.357803 56.319753 C 341.766601 56.036739 342.202352 55.80314 342.660565 55.609972 C 343.114285 55.421296 343.585975 55.273051 344.071141 55.178713 C 344.556308 55.079883 345.045966 55.030468 345.540117 55.030468 C 346.034268 55.030468 346.523927 55.079883 347.009094 55.178713 C 347.49426 55.273051 347.96595 55.421296 348.41967 55.609972 C 348.877883 55.80314 349.313634 56.036739 349.722432 56.319753 C 350.135722 56.598274 350.513073 56.912734 350.863471 57.267624 C 351.213869 57.622515 351.528329 58.008851 351.802358 58.426633 C 352.076387 58.844415 352.305494 59.284659 352.498662 59.747364 C 352.687338 60.210069 352.826598 60.686251 352.925429 61.180402 C 353.019767 61.67006 353.069182 62.168704 353.069182 62.671839 Z M 353.069182 62.671839 " stroke="#231f20" stroke-width="2" stroke-opacity="1" stroke-miterlimit="10"/><path stroke-linecap="butt" transform="matrix(0.869547, 0, 0, 0.869547, -171.498521, 37.480454)" fill-opacity="1" fill="#fff200" fill-rule="nonzero" stroke-linejoin="miter" d="M 378.558388 62.671839 C 378.558388 63.170482 378.513465 63.669126 378.414635 64.158784 C 378.320297 64.652935 378.176544 65.129117 377.987868 65.591822 C 377.799193 66.05902 377.565594 66.499263 377.291565 66.912553 C 377.017536 67.330335 376.703076 67.716672 376.352678 68.071562 C 376.006772 68.426452 375.624928 68.745404 375.211638 69.023926 C 374.802841 69.302447 374.367089 69.536046 373.913369 69.729214 C 373.455156 69.922382 372.983467 70.066135 372.4983 70.164965 C 372.013134 70.259303 371.523475 70.308718 371.029324 70.308718 C 370.535173 70.308718 370.045514 70.259303 369.560348 70.164965 C 369.075181 70.066135 368.603492 69.922382 368.149771 69.729214 C 367.691559 69.536046 367.255807 69.302447 366.84701 69.023926 C 366.43372 68.745404 366.056368 68.426452 365.70597 68.071562 C 365.355572 67.716672 365.045605 67.330335 364.767083 66.912553 C 364.493054 66.499263 364.263948 66.05902 364.075272 65.591822 C 363.882104 65.129117 363.742843 64.652935 363.644013 64.158784 C 363.549675 63.669126 363.50026 63.170482 363.50026 62.671839 C 363.50026 62.168704 363.549675 61.67006 363.644013 61.180402 C 363.742843 60.686251 363.882104 60.210069 364.075272 59.747364 C 364.263948 59.284659 364.493054 58.844415 364.767083 58.426633 C 365.045605 58.008851 365.355572 57.622515 365.70597 57.267624 C 366.056368 56.912734 366.43372 56.598274 366.84701 56.319753 C 367.255807 56.036739 367.691559 55.80314 368.149771 55.609972 C 368.603492 55.421296 369.075181 55.273051 369.560348 55.178713 C 370.045514 55.079883 370.535173 55.030468 371.029324 55.030468 C 371.523475 55.030468 372.013134 55.079883 372.4983 55.178713 C 372.983467 55.273051 373.455156 55.421296 373.913369 55.609972 C 374.367089 55.80314 374.802841 56.036739 375.211638 56.319753 C 375.624928 56.598274 376.006772 56.912734 376.352678 57.267624 C 376.703076 57.622515 377.017536 58.008851 377.291565 58.426633 C 377.565594 58.844415 377.799193 59.284659 377.987868 59.747364 C 378.176544 60.210069 378.320297 60.686251 378.414635 61.180402 C 378.513465 61.67006 378.558388 62.168704 378.558388 62.671839 Z M 378.558388 62.671839 " stroke="#231f20" stroke-width="2" stroke-opacity="1" stroke-miterlimit="10"/><path stroke-linecap="butt" transform="matrix(0.869547, 0, 0, 0.869547, -171.498521, 37.480454)" fill-opacity="1" fill="#00a651" fill-rule="nonzero" stroke-linejoin="miter" d="M 404.052087 62.671839 C 404.052087 63.170482 404.002672 63.669126 403.903842 64.158784 C 403.809504 64.652935 403.665751 65.129117 403.477075 65.591822 C 403.288399 66.05902 403.0548 66.499263 402.780771 66.912553 C 402.506742 67.330335 402.192282 67.716672 401.846377 68.071562 C 401.495979 68.426452 401.114135 68.745404 400.705337 69.023926 C 400.292047 69.302447 399.856296 69.536046 399.402575 69.729214 C 398.944363 69.922382 398.472673 70.066135 397.987507 70.164965 C 397.50234 70.259303 397.012681 70.308718 396.51853 70.308718 C 396.02438 70.308718 395.534721 70.259303 395.049554 70.164965 C 394.564388 70.066135 394.097191 69.922382 393.638978 69.729214 C 393.180765 69.536046 392.749506 69.302447 392.336216 69.023926 C 391.927419 68.745404 391.545575 68.426452 391.195177 68.071562 C 390.844779 67.716672 390.534811 67.330335 390.260782 66.912553 C 389.982261 66.499263 389.753154 66.05902 389.564478 65.591822 C 389.375803 65.129117 389.23205 64.652935 389.133219 64.158784 C 389.038881 63.669126 388.989466 63.170482 388.989466 62.671839 C 388.989466 62.168704 389.038881 61.67006 389.133219 61.180402 C 389.23205 60.686251 389.375803 60.210069 389.564478 59.747364 C 389.753154 59.284659 389.982261 58.844415 390.260782 58.426633 C 390.534811 58.008851 390.844779 57.622515 391.195177 57.267624 C 391.545575 56.912734 391.927419 56.598274 392.336216 56.319753 C 392.749506 56.036739 393.180765 55.80314 393.638978 55.609972 C 394.097191 55.421296 394.564388 55.273051 395.049554 55.178713 C 395.534721 55.079883 396.02438 55.030468 396.51853 55.030468 C 397.012681 55.030468 397.50234 55.079883 397.987507 55.178713 C 398.472673 55.273051 398.944363 55.421296 399.402575 55.609972 C 399.856296 55.80314 400.292047 56.036739 400.705337 56.319753 C 401.114135 56.598274 401.495979 56.912734 401.846377 57.267624 C 402.192282 57.622515 402.506742 58.008851 402.780771 58.426633 C 403.0548 58.844415 403.288399 59.284659 403.477075 59.747364 C 403.665751 60.210069 403.809504 60.686251 403.903842 61.180402 C 404.002672 61.67006 404.052087 62.168704 404.052087 62.671839 Z M 404.052087 62.671839 " stroke="#231f20" stroke-width="2" stroke-opacity="1" stroke-miterlimit="10"/><path fill="#b0282f" d="M 305.449219 103.347656 L 213.363281 103.347656 C 211.515625 103.351562 209.726562 103.671875 207.992188 104.308594 C 206.261719 104.941406 204.6875 105.855469 203.277344 107.042969 L 165.773438 140.027344 C 164.355469 141.222656 162.777344 142.136719 161.035156 142.773438 C 159.292969 143.410156 157.496094 143.730469 155.640625 143.730469 L 55.019531 143.730469 L 55.019531 150.3125 L 155.597656 150.3125 C 158.222656 150.3125 160.769531 149.863281 163.234375 148.96875 C 165.703125 148.070312 167.941406 146.78125 169.957031 145.09375 L 207.503906 112.054688 C 208.324219 111.367188 209.238281 110.839844 210.246094 110.476562 C 211.253906 110.113281 212.292969 109.929688 213.363281 109.929688 L 305.449219 109.929688 Z M 305.449219 103.347656 " fill-opacity="1" fill-rule="nonzero"/><g clip-path="url(#ef060b1afe)"><path stroke-linecap="butt" transform="matrix(0.869547, 0, 0, 0.869547, -171.498521, 37.480454)" fill="none" stroke-linejoin="miter" d="M 260.501224 122.19008 L 376.168494 122.19008 C 378.302328 122.19008 380.368778 121.821713 382.372335 121.089471 C 384.375893 120.357229 386.190775 119.306035 387.821473 117.931397 L 431.001285 79.99857 C 432.631983 78.628424 434.446865 77.572738 436.450423 76.844988 C 438.449488 76.112746 440.52043 75.748871 442.649772 75.748871 L 548.501406 75.748871 " stroke="#231f20" stroke-width="2" stroke-opacity="1" stroke-miterlimit="10"/></g><g clip-path="url(#9f8c45ca59)"><path stroke-linecap="butt" transform="matrix(0.869547, 0, 0, 0.869547, -171.498521, 37.480454)" fill="none" stroke-linejoin="miter" d="M 260.501224 129.759575 L 376.168494 129.759575 C 379.187308 129.759575 382.116275 129.242962 384.950905 128.21423 C 387.790027 127.181005 390.364105 125.698552 392.682122 123.757886 L 435.861934 85.762167 C 436.805313 84.971526 437.856507 84.365068 439.015516 83.947285 C 440.174524 83.529503 441.369471 83.318366 442.600356 83.318366 L 548.501406 83.318366 " stroke="#231f20" stroke-width="2" stroke-opacity="1" stroke-miterlimit="10"/></g><path stroke-linecap="butt" transform="matrix(0.869547, 0, 0, 0.869547, -171.498521, 37.480454)" fill-opacity="1" fill="#39b54a" fill-rule="nonzero" stroke-linejoin="miter" d="M 429.891691 475.171117 L 333.568187 475.171117 C 333.172866 475.171117 332.782037 475.207055 332.391209 475.287916 C 332.00038 475.364285 331.623029 475.481084 331.259154 475.633822 C 330.890787 475.786559 330.544881 475.975235 330.212452 476.195357 C 329.884516 476.415479 329.583533 476.671539 329.300519 476.95006 C 329.021998 477.233074 328.774922 477.543041 328.5548 477.870978 C 328.339171 478.203407 328.154987 478.553805 328.006742 478.922172 C 327.858497 479.290539 327.74619 479.667891 327.674313 480.058719 C 327.597944 480.449548 327.566498 480.844868 327.570991 481.240189 L 327.570991 523.238531 C 327.566498 523.638344 327.597944 524.029173 327.674313 524.420001 C 327.74619 524.81083 327.858497 525.188181 328.006742 525.556549 C 328.154987 525.924916 328.339171 526.275314 328.5548 526.607742 C 328.774922 526.940171 329.021998 527.245646 329.300519 527.52866 C 329.583533 527.811674 329.884516 528.063242 330.212452 528.283364 C 330.544881 528.507978 330.890787 528.692161 331.259154 528.844899 C 331.623029 528.997636 332.00038 529.114436 332.391209 529.190804 C 332.782037 529.271666 333.172866 529.312096 333.568187 529.312096 L 429.891691 529.312096 C 430.287012 529.312096 430.677841 529.271666 431.068669 529.190804 C 431.459498 529.114436 431.836849 528.997636 432.200724 528.844899 C 432.569091 528.692161 432.914997 528.507978 433.247426 528.283364 C 433.575362 528.063242 433.876345 527.811674 434.159359 527.52866 C 434.437881 527.245646 434.684956 526.940171 434.905078 526.607742 C 435.120707 526.275314 435.304891 525.924916 435.453136 525.556549 C 435.601382 525.188181 435.713689 524.81083 435.785565 524.420001 C 435.861934 524.029173 435.89338 523.638344 435.888888 523.238531 L 435.888888 481.240189 C 435.89338 480.844868 435.861934 480.449548 435.785565 480.058719 C 435.713689 479.667891 435.601382 479.290539 435.453136 478.922172 C 435.304891 478.553805 435.120707 478.203407 434.905078 477.870978 C 434.684956 477.543041 434.437881 477.233074 434.159359 476.95006 C 433.876345 476.671539 433.575362 476.415479 433.247426 476.195357 C 432.914997 475.975235 432.569091 475.786559 432.200724 475.633822 C 431.836849 475.481084 431.459498 475.364285 431.068669 475.287916 C 430.677841 475.207055 430.287012 475.171117 429.891691 475.171117 Z M 429.891691 475.171117 " stroke="#231f20" stroke-width="2" stroke-opacity="1" stroke-miterlimit="10"/><path stroke-linecap="butt" transform="matrix(0.332761, -0.803357, 0.803357, 0.332761, -377.085525, 517.365571)" fill-opacity="1" fill="#231f20" fill-rule="nonzero" stroke-linejoin="miter" d="M 312.138898 452.859453 C 312.140309 454.001534 312.029785 455.131633 311.807323 456.249748 C 311.584862 457.367863 311.253607 458.458106 310.818421 459.508737 C 310.380804 460.565238 309.8424 461.566239 309.209077 462.514169 C 308.577473 463.466251 307.856526 464.343504 307.047954 465.150079 C 306.243532 465.954935 305.366368 466.678087 304.417173 467.309514 C 303.465547 467.946811 302.465074 468.477919 301.41261 468.918726 C 300.356708 469.351233 299.269567 469.684843 298.150179 469.905388 C 297.032511 470.130084 295.900916 470.238987 294.758835 470.240399 C 293.620903 470.240092 292.490805 470.129567 291.36682 469.904674 C 290.248705 469.682213 289.164332 469.353389 288.107831 468.915772 C 287.053049 468.482306 286.052049 467.943901 285.104118 467.310578 C 284.156187 466.677255 283.278934 465.956308 282.468208 465.149455 C 281.661633 464.340883 280.944351 463.46615 280.307054 462.514524 C 279.675627 461.56533 279.140369 460.566576 278.703712 459.512392 C 278.267055 458.458209 277.937594 457.369349 277.712899 456.25168 C 277.492354 455.132293 277.3793 454.002418 277.377889 452.860336 C 277.380627 451.716535 277.491152 450.586437 277.713613 449.468322 C 277.936075 448.350206 278.264898 447.265833 278.702515 446.209332 C 279.140132 445.152831 279.674386 444.15355 280.307709 443.205619 C 280.945182 442.255969 281.664411 441.374566 282.468833 440.56971 C 283.277405 439.763134 284.156288 439.044133 285.103763 438.408555 C 286.052958 437.777128 287.055862 437.240151 288.110045 436.803494 C 289.164228 436.366837 290.248939 436.039096 291.370757 435.812681 C 292.490145 435.592136 293.62002 435.479083 294.757951 435.47939 C 295.901752 435.482128 297.031851 435.592653 298.149966 435.815114 C 299.268081 436.037576 300.356605 436.36468 301.413106 436.802297 C 302.465456 437.241633 303.468888 437.774169 304.416818 438.407491 C 305.364749 439.040814 306.242002 439.761762 307.048578 440.570334 C 307.855153 441.378906 308.578305 442.25607 309.209732 443.205265 C 309.84531 444.15274 310.382287 445.155644 310.818944 446.209828 C 311.255601 447.264011 311.583342 448.348721 311.803887 449.468108 C 312.030302 450.589927 312.139205 451.721521 312.138898 452.859453 Z M 312.138898 452.859453 " stroke="#231f20" stroke-width="2" stroke-opacity="1" stroke-miterlimit="10"/><path stroke-linecap="butt" transform="matrix(0.332761, -0.803357, 0.803357, 0.332761, -374.20717, 517.939563)" fill-opacity="1" fill="#58595b" fill-rule="nonzero" stroke-linejoin="miter" d="M 314.291751 450.709034 C 314.289013 451.852835 314.178488 452.982933 313.956027 454.101048 C 313.733565 455.219164 313.406461 456.307687 312.967125 457.360038 C 312.529508 458.416539 311.995254 459.41582 311.361931 460.36375 C 310.724458 461.3134 310.005229 462.194804 309.200807 462.99966 C 308.392235 463.806236 307.513352 464.525237 306.565877 465.160815 C 305.618401 465.796392 304.613778 466.329219 303.559595 466.765876 C 302.505412 467.202533 301.422421 467.534425 300.298883 467.756689 C 299.179495 467.977234 298.04962 468.090287 296.911689 468.08998 C 295.769607 468.091392 294.637789 467.976717 293.519674 467.754255 C 292.401559 467.531794 291.313035 467.204689 290.260685 466.765353 C 289.205903 466.331887 288.204903 465.793482 287.252822 465.161878 C 286.304891 464.528556 285.427638 463.807608 284.621062 462.999036 C 283.814487 462.190464 283.091335 461.3133 282.459908 460.364105 C 281.82433 459.41663 281.289072 458.417876 280.850696 457.359542 C 280.414039 456.305359 280.086298 455.220649 279.865753 454.101262 C 279.641058 452.983593 279.532154 451.851999 279.530742 450.709917 C 279.529331 449.567835 279.639855 448.437737 279.862317 447.319622 C 280.084778 446.201507 280.416033 445.111264 280.855369 444.058913 C 281.288836 443.004132 281.82724 442.003131 282.460563 441.0552 C 283.093886 440.10727 283.813114 439.225866 284.621686 438.419291 C 285.426108 437.614435 286.304991 436.895433 287.252467 436.259855 C 288.204093 435.622559 289.204566 435.091451 290.258749 434.654794 C 291.312932 434.218137 292.400073 433.884526 293.519461 433.663981 C 294.638848 433.443436 295.768724 433.330383 296.910805 433.328971 C 298.048737 433.329278 299.180554 433.443953 300.30282 433.664696 C 301.420935 433.887157 302.505308 434.215981 303.561809 434.653598 C 304.616591 435.087064 305.617591 435.625469 306.565522 436.258792 C 307.513453 436.892115 308.390706 437.613062 309.201432 438.419915 C 310.008007 439.228487 310.727008 440.10737 311.362586 441.054846 C 311.994013 442.00404 312.529271 443.002794 312.965928 444.056977 C 313.404304 445.115311 313.732046 446.200021 313.956741 447.317689 C 314.177286 448.437077 314.29034 449.566952 314.291751 450.709034 Z M 314.291751 450.709034 " stroke="#231f20" stroke-width="2" stroke-opacity="1" stroke-miterlimit="10"/><path stroke-linecap="butt" transform="matrix(0.869547, 0, 0, 0.869547, -171.498521, 37.480454)" fill-opacity="1" fill="#ed1c24" fill-rule="nonzero" stroke-linejoin="miter" d="M 330.688634 455.000772 L 369.789454 455.000772 C 371.950242 455.000772 373.702232 453.001706 373.702232 450.481536 C 373.702232 447.961366 371.999657 445.998239 369.789454 445.998239 L 330.688634 445.998239 C 328.527847 445.998239 326.780349 448.001797 326.780349 450.50849 C 326.780349 453.019675 328.527847 455.000772 330.688634 455.000772 Z M 330.688634 455.000772 " stroke="#231f20" stroke-width="2" stroke-opacity="1" stroke-miterlimit="10"/><path stroke-linecap="butt" transform="matrix(0.869547, 0, 0, 0.869547, -171.498521, 37.480454)" fill-opacity="1" fill="#00a79d" fill-rule="nonzero" stroke-linejoin="miter" d="M 392.861813 455.000772 L 431.998572 455.000772 C 434.159359 455.000772 435.911349 453.001706 435.911349 450.481536 C 435.911349 447.961366 434.118929 445.998239 431.998572 445.998239 L 392.897751 445.998239 C 390.741456 445.998239 388.989466 448.001797 388.989466 450.50849 C 388.989466 453.019675 390.701026 455.000772 392.861813 455.000772 Z M 392.861813 455.000772 " stroke="#231f20" stroke-width="2" stroke-opacity="1" stroke-miterlimit="10"/><path stroke-linecap="butt" transform="matrix(0.869547, 0, 0, 0.869547, -171.498521, 37.480454)" fill-opacity="1" fill="#231f20" fill-rule="nonzero" stroke-linejoin="miter" d="M 529.148656 469.380566 L 506.498572 469.380566 L 506.498572 446.739466 C 506.498572 446.510359 506.458141 446.290237 506.368296 446.074608 C 506.282942 445.863471 506.157158 445.674795 505.995436 445.513073 C 505.833714 445.351351 505.645038 445.225567 505.433901 445.135721 C 505.222764 445.045875 504.99815 445.000953 504.769043 445.000953 L 487.428836 445.000953 C 486.431549 445.000953 483.089292 448.949668 483.089292 449.902032 L 483.089292 469.380566 L 463.089653 469.380566 C 462.087875 469.380566 458.741125 473.329281 458.741125 474.290629 L 458.741125 491.621852 C 458.741125 491.850959 458.786048 492.071081 458.871401 492.28671 C 458.961247 492.497847 459.08703 492.686523 459.248753 492.848245 C 459.414967 493.01446 459.599151 493.140244 459.81478 493.225597 C 460.025917 493.315443 460.250531 493.360365 460.479638 493.360365 L 483.129722 493.360365 L 483.129722 516.001465 C 483.129722 516.230572 483.174645 516.450693 483.264491 516.661831 C 483.354336 516.872968 483.475628 517.057152 483.63735 517.218874 C 483.803564 517.380596 483.987748 517.50638 484.198885 517.596225 C 484.410023 517.686071 484.630144 517.726501 484.859251 517.730994 L 502.199458 517.730994 C 503.201237 517.730994 506.539002 513.791263 506.539002 512.829914 L 506.539002 493.360365 L 526.538641 493.360365 C 527.540419 493.360365 530.891662 489.420634 530.891662 488.459286 L 530.891662 471.119079 C 530.891662 470.889972 530.846739 470.665358 530.756893 470.454221 C 530.667047 470.243084 530.545756 470.054408 530.379541 469.888193 C 530.217819 469.726471 530.029143 469.600687 529.818006 469.510842 C 529.602377 469.425488 529.382255 469.380566 529.148656 469.380566 Z M 529.148656 469.380566 " stroke="#231f20" stroke-width="2" stroke-opacity="1" stroke-miterlimit="10"/><path stroke-linecap="butt" transform="matrix(0.869547, 0, 0, 0.869547, -171.498521, 37.480454)" fill-opacity="1" fill="#58595b" fill-rule="nonzero" stroke-linejoin="miter" d="M 529.148656 469.380566 L 506.498572 469.380566 L 506.498572 446.739466 C 506.498572 446.510359 506.458141 446.290237 506.368296 446.074608 C 506.282942 445.863471 506.157158 445.674795 505.995436 445.513073 C 505.833714 445.351351 505.645038 445.225567 505.433901 445.135721 C 505.222764 445.045875 504.99815 445.000953 504.769043 445.000953 L 487.428836 445.000953 C 487.199729 445.000953 486.975115 445.045875 486.763978 445.131229 C 486.552841 445.221074 486.364165 445.346858 486.197951 445.50858 C 486.036229 445.674795 485.910445 445.858978 485.820599 446.074608 C 485.735246 446.285745 485.690323 446.510359 485.690323 446.739466 L 485.690323 469.380566 L 463.049223 469.380566 C 462.820117 469.380566 462.595502 469.425488 462.384365 469.510842 C 462.168736 469.600687 461.984552 469.726471 461.818338 469.888193 C 461.656616 470.054408 461.530832 470.243084 461.440986 470.454221 C 461.355633 470.665358 461.31071 470.889972 461.31071 471.119079 L 461.31071 488.459286 C 461.31071 488.688392 461.355633 488.913006 461.440986 489.124144 C 461.530832 489.335281 461.656616 489.523957 461.818338 489.685679 C 461.984552 489.847401 462.173228 489.973185 462.384365 490.063031 C 462.599995 490.148384 462.820117 490.193307 463.049223 490.188814 L 485.690323 490.188814 L 485.690323 512.838899 C 485.690323 513.072498 485.735246 513.292619 485.820599 513.503757 C 485.910445 513.719386 486.036229 513.908062 486.197951 514.069784 C 486.364165 514.231506 486.552841 514.35729 486.763978 514.447136 C 486.975115 514.536981 487.199729 514.581904 487.428836 514.581904 L 504.769043 514.581904 C 504.99815 514.577412 505.222764 514.532489 505.433901 514.442644 C 505.645038 514.35729 505.833714 514.231506 505.995436 514.065292 C 506.157158 513.90357 506.282942 513.714894 506.368296 513.503757 C 506.458141 513.292619 506.498572 513.068005 506.498572 512.838899 L 506.498572 490.188814 L 529.148656 490.188814 C 529.382255 490.193307 529.602377 490.148384 529.813514 490.063031 C 530.029143 489.973185 530.217819 489.847401 530.379541 489.685679 C 530.541264 489.523957 530.667047 489.335281 530.756893 489.124144 C 530.846739 488.913006 530.891662 488.688392 530.891662 488.459286 L 530.891662 471.119079 C 530.891662 470.889972 530.846739 470.665358 530.756893 470.454221 C 530.667047 470.243084 530.545756 470.054408 530.379541 469.888193 C 530.217819 469.726471 530.029143 469.600687 529.818006 469.510842 C 529.602377 469.425488 529.382255 469.380566 529.148656 469.380566 Z M 529.148656 469.380566 " stroke="#231f20" stroke-width="2" stroke-opacity="1" stroke-miterlimit="10"/><path stroke-linecap="butt" transform="matrix(0.869547, 0, 0, 0.869547, -171.498521, 37.480454)" fill-opacity="1" fill="#58595b" fill-rule="nonzero" stroke-linejoin="miter" d="M 503.69988 479.789182 C 503.69988 480.287826 503.650465 480.781977 503.556127 481.271635 C 503.457297 481.761294 503.313544 482.237476 503.120376 482.700181 C 502.9317 483.158394 502.698101 483.598637 502.41958 484.011927 C 502.141059 484.425217 501.826599 484.811553 501.476201 485.161951 C 501.121311 485.516841 500.734974 485.831301 500.321684 486.109823 C 499.908394 486.388344 499.468151 486.621943 499.009938 486.810619 C 498.547233 487.003787 498.071051 487.14754 497.581393 487.241878 C 497.091734 487.340708 496.597583 487.390123 496.09894 487.390123 C 495.600296 487.390123 495.106145 487.340708 494.616487 487.241878 C 494.126828 487.14754 493.650646 487.003787 493.192433 486.810619 C 492.729728 486.621943 492.293977 486.388344 491.876195 486.109823 C 491.462905 485.831301 491.081061 485.516841 490.726171 485.161951 C 490.37128 484.811553 490.056821 484.425217 489.782791 484.011927 C 489.50427 483.598637 489.270671 483.158394 489.077503 482.700181 C 488.888827 482.237476 488.745074 481.761294 488.646244 481.271635 C 488.547414 480.781977 488.497999 480.287826 488.497999 479.789182 C 488.497999 479.290539 488.547414 478.796388 488.646244 478.306729 C 488.745074 477.817071 488.888827 477.340889 489.077503 476.882676 C 489.270671 476.419971 489.50427 475.98422 489.782791 475.566437 C 490.056821 475.153148 490.37128 474.766811 490.726171 474.416413 C 491.076569 474.061523 491.462905 473.747063 491.876195 473.473034 C 492.293977 473.194513 492.729728 472.960914 493.192433 472.767746 C 493.650646 472.57907 494.126828 472.435317 494.616487 472.336487 C 495.106145 472.237657 495.600296 472.188242 496.09894 472.188242 C 496.597583 472.188242 497.091734 472.237657 497.581393 472.336487 C 498.071051 472.435317 498.547233 472.57907 499.009938 472.767746 C 499.468151 472.960914 499.908394 473.194513 500.321684 473.473034 C 500.739467 473.747063 501.121311 474.061523 501.476201 474.416413 C 501.826599 474.766811 502.141059 475.153148 502.41958 475.566437 C 502.698101 475.98422 502.9317 476.419971 503.120376 476.882676 C 503.313544 477.340889 503.457297 477.817071 503.556127 478.306729 C 503.650465 478.796388 503.69988 479.290539 503.69988 479.789182 Z M 503.69988 479.789182 " stroke="#231f20" stroke-width="2" stroke-opacity="1" stroke-miterlimit="10"/><path stroke-linecap="butt" transform="matrix(0.869547, 0, 0, 0.869547, -171.498521, 37.480454)" fill-opacity="1" fill="#939598" fill-rule="nonzero" stroke-linejoin="miter" d="M 523.600688 138.398232 L 289.602225 138.398232 C 288.133249 138.402725 286.745134 138.739646 285.43788 139.408996 C 284.130626 140.078346 283.047986 141.008248 282.18996 142.198703 C 279.651821 143.721586 276.938483 148.501374 276.938483 151.681909 L 276.938483 390.999234 C 276.938483 392.15375 277.158605 393.263344 277.598849 394.328015 C 278.039092 395.392685 278.668012 396.331572 279.481115 397.149168 L 305.141028 423.878244 L 305.442011 424.147781 L 306.151791 424.880023 C 306.960402 425.697618 307.894797 426.326537 308.959467 426.771273 C 310.024138 427.211517 311.129239 427.431639 312.279264 427.431639 L 519.589081 427.431639 C 522.760632 427.431639 527.531435 424.718301 529.040842 422.171177 C 530.222312 421.304166 531.147722 420.217034 531.812579 418.90978 C 532.472945 417.602526 532.809866 416.214411 532.809866 414.749927 L 532.809866 147.598425 C 532.809866 146.99646 532.751466 146.398986 532.634667 145.806005 C 532.513375 145.213024 532.338176 144.633519 532.10907 144.076476 C 531.875471 143.519433 531.592458 142.989344 531.255536 142.486209 C 530.923108 141.983073 530.541264 141.520368 530.110005 141.089109 C 529.683238 140.662342 529.220533 140.280498 528.717397 139.948069 C 528.214262 139.611148 527.684172 139.328135 527.122637 139.099028 C 526.565594 138.86543 525.990582 138.690231 525.397601 138.573431 C 524.80462 138.456632 524.202654 138.398232 523.600688 138.398232 Z M 523.600688 138.398232 " stroke="#231f20" stroke-width="2" stroke-opacity="1" stroke-miterlimit="10"/><path stroke-linecap="butt" transform="matrix(0.869547, 0, 0, 0.869547, -171.498521, 37.480454)" fill-opacity="1" fill="#f1f2f2" fill-rule="nonzero" stroke-linejoin="miter" d="M 523.600688 138.910352 L 289.602225 138.910352 C 289.031706 138.914845 288.47017 138.973244 287.91762 139.090044 C 287.360577 139.206843 286.821503 139.373057 286.300398 139.593179 C 285.779294 139.813301 285.28065 140.082838 284.813453 140.40179 C 284.341763 140.720742 283.910504 141.080124 283.510691 141.48443 C 283.110878 141.888735 282.755988 142.324487 282.441528 142.796176 C 282.131561 143.272358 281.866516 143.771001 281.650887 144.292106 C 281.435257 144.817703 281.273535 145.356777 281.161228 145.91382 C 281.053413 146.470863 280.999506 147.032398 280.999506 147.598425 L 280.999506 387.99839 C 280.999506 389.152906 281.219628 390.258007 281.659871 391.322678 C 282.100115 392.387349 282.724542 393.326236 283.542137 394.139339 L 309.202051 420.881892 C 310.010661 421.694995 310.949548 422.319422 312.014219 422.759666 C 313.074397 423.199909 314.179499 423.420031 315.329523 423.420031 L 523.600688 423.420031 C 524.171208 423.420031 524.732743 423.361631 525.294279 423.249324 C 525.851321 423.14151 526.394888 422.975295 526.920485 422.755173 C 527.450574 422.535052 527.949217 422.270007 528.420907 421.951055 C 528.897088 421.636595 529.337332 421.27272 529.737145 420.872907 C 530.141451 420.468602 530.500833 420.028358 530.815293 419.556669 C 531.134245 419.080487 531.399289 418.581844 531.619411 418.051754 C 531.839533 417.526158 532.001255 416.982591 532.113562 416.425549 C 532.225869 415.864013 532.279777 415.297986 532.279777 414.731958 L 532.279777 147.598425 C 532.279777 147.027905 532.225869 146.46637 532.113562 145.904835 C 532.001255 145.347792 531.839533 144.804226 531.619411 144.278629 C 531.399289 143.74854 531.134245 143.249897 530.819785 142.773715 C 530.500833 142.302025 530.141451 141.861782 529.737145 141.457476 C 529.337332 141.053171 528.897088 140.693788 528.425399 140.379329 C 527.949217 140.060377 527.450574 139.79084 526.920485 139.57521 C 526.394888 139.355088 525.851321 139.188874 525.294279 139.076567 C 524.732743 138.968752 524.171208 138.910352 523.600688 138.910352 Z M 523.600688 138.910352 " stroke="#231f20" stroke-width="2" stroke-opacity="1" stroke-miterlimit="10"/><path stroke-linecap="butt" transform="matrix(0.869547, 0, 0, 0.869547, -171.498521, 37.480454)" fill-opacity="1" fill="#ed1c24" fill-rule="nonzero" stroke-linejoin="miter" d="M 338.24016 398.559744 C 338.24016 399.395308 338.159299 400.217396 337.997576 401.034991 C 337.835854 401.852587 337.593271 402.64772 337.274319 403.415901 C 336.959859 404.184081 336.569031 404.916323 336.106326 405.608134 C 335.643621 406.304438 335.118024 406.942342 334.534027 407.535323 C 333.945538 408.123812 333.303142 408.649409 332.611331 409.112114 C 331.924012 409.574819 331.19177 409.965647 330.423589 410.284599 C 329.655409 410.603551 328.864768 410.841642 328.051665 411.007857 C 327.234069 411.169579 326.411982 411.25044 325.58091 411.25044 C 324.749838 411.25044 323.923258 411.169579 323.110155 411.007857 C 322.292559 410.841642 321.501918 410.603551 320.733738 410.284599 C 319.965558 409.965647 319.237808 409.574819 318.545997 409.112114 C 317.854185 408.649409 317.216281 408.123812 316.627792 407.535323 C 316.039303 406.942342 315.513706 406.304438 315.055494 405.608134 C 314.592789 404.916323 314.20196 404.184081 313.883008 403.415901 C 313.564056 402.64772 313.325965 401.852587 313.164243 401.034991 C 313.002521 400.217396 312.92166 399.395308 312.92166 398.559744 C 312.92166 397.728672 313.002521 396.902092 313.164243 396.084497 C 313.325965 395.266902 313.564056 394.471768 313.883008 393.703588 C 314.20196 392.935407 314.592789 392.203165 315.055494 391.511354 C 315.513706 390.81505 316.039303 390.177146 316.627792 389.588657 C 317.216281 388.995676 317.854185 388.470079 318.545997 388.007374 C 319.237808 387.544669 319.965558 387.153841 320.733738 386.834889 C 321.501918 386.515937 322.292559 386.277846 323.110155 386.111631 C 323.923258 385.949909 324.749838 385.869048 325.58091 385.869048 C 326.411982 385.869048 327.234069 385.949909 328.051665 386.111631 C 328.864768 386.277846 329.655409 386.515937 330.423589 386.834889 C 331.19177 387.153841 331.924012 387.544669 332.611331 388.007374 C 333.303142 388.470079 333.945538 388.995676 334.534027 389.588657 C 335.118024 390.177146 335.643621 390.81505 336.106326 391.511354 C 336.569031 392.203165 336.959859 392.935407 337.274319 393.703588 C 337.593271 394.471768 337.835854 395.266902 337.997576 396.084497 C 338.159299 396.902092 338.24016 397.728672 338.24016 398.559744 Z M 338.24016 398.559744 " stroke="#231f20" stroke-width="2" stroke-opacity="1" stroke-miterlimit="10"/><path fill="#231f20" d="M 230.09375 375.472656 L 275.554688 375.472656 C 275.695312 375.472656 275.835938 375.445312 275.96875 375.390625 C 276.101562 375.335938 276.21875 375.257812 276.320312 375.15625 C 276.421875 375.054688 276.503906 374.933594 276.558594 374.800781 C 276.613281 374.667969 276.640625 374.53125 276.640625 374.386719 C 276.640625 374.242188 276.613281 374.105469 276.558594 373.96875 C 276.503906 373.835938 276.421875 373.71875 276.320312 373.617188 C 276.21875 373.515625 276.101562 373.4375 275.96875 373.382812 C 275.835938 373.328125 275.695312 373.300781 275.554688 373.300781 L 230.09375 373.300781 C 229.949219 373.300781 229.808594 373.328125 229.675781 373.386719 C 229.542969 373.445312 229.425781 373.523438 229.328125 373.628906 C 229.226562 373.730469 229.148438 373.851562 229.097656 373.984375 C 229.042969 374.121094 229.019531 374.257812 229.023438 374.402344 C 229.023438 374.546875 229.050781 374.683594 229.105469 374.8125 C 229.160156 374.945312 229.238281 375.058594 229.335938 375.160156 C 229.4375 375.261719 229.550781 375.335938 229.683594 375.390625 C 229.816406 375.445312 229.953125 375.472656 230.09375 375.472656 Z M 230.09375 375.472656 " fill-opacity="1" fill-rule="nonzero"/><path fill="#231f20" d="M 275.554688 386.421875 L 230.09375 386.421875 C 229.8125 386.445312 229.578125 386.5625 229.386719 386.769531 C 229.199219 386.976562 229.101562 387.222656 229.101562 387.503906 C 229.101562 387.785156 229.199219 388.03125 229.386719 388.238281 C 229.578125 388.445312 229.8125 388.5625 230.09375 388.585938 L 275.554688 388.585938 C 275.832031 388.5625 276.066406 388.445312 276.257812 388.238281 C 276.449219 388.03125 276.542969 387.785156 276.542969 387.503906 C 276.542969 387.222656 276.449219 386.976562 276.257812 386.769531 C 276.066406 386.5625 275.832031 386.445312 275.554688 386.421875 Z M 275.554688 386.421875 " fill-opacity="1" fill-rule="nonzero"/><path fill="#231f20" d="M 275.554688 392.976562 L 230.09375 392.976562 C 229.8125 393.003906 229.578125 393.117188 229.386719 393.328125 C 229.199219 393.535156 229.101562 393.777344 229.101562 394.058594 C 229.101562 394.339844 229.199219 394.585938 229.386719 394.792969 C 229.578125 395 229.8125 395.117188 230.09375 395.140625 L 275.554688 395.140625 C 275.832031 395.117188 276.066406 395 276.257812 394.792969 C 276.449219 394.585938 276.542969 394.339844 276.542969 394.058594 C 276.542969 393.777344 276.449219 393.535156 276.257812 393.328125 C 276.066406 393.117188 275.832031 393.003906 275.554688 392.976562 Z M 275.554688 392.976562 " fill-opacity="1" fill-rule="nonzero"/><path fill="#231f20" d="M 275.554688 379.863281 L 230.09375 379.863281 C 229.8125 379.890625 229.578125 380.007812 229.386719 380.214844 C 229.199219 380.421875 229.101562 380.664062 229.101562 380.945312 C 229.101562 381.226562 229.199219 381.472656 229.386719 381.679688 C 229.578125 381.886719 229.8125 382.003906 230.09375 382.03125 L 275.554688 382.03125 C 275.832031 382.003906 276.066406 381.886719 276.257812 381.679688 C 276.449219 381.472656 276.542969 381.226562 276.542969 380.945312 C 276.542969 380.664062 276.449219 380.421875 276.257812 380.214844 C 276.066406 380.007812 275.832031 379.890625 275.554688 379.863281 Z M 275.554688 379.863281 " fill-opacity="1" fill-rule="nonzero"/><path fill="#ed1c24" d="M 176.746094 164.6875 C 176.746094 165.050781 176.675781 165.402344 176.539062 165.742188 C 176.398438 166.078125 176.199219 166.378906 175.941406 166.636719 C 175.683594 166.894531 175.386719 167.09375 175.050781 167.234375 C 174.714844 167.371094 174.363281 167.441406 174 167.441406 C 173.632812 167.441406 173.285156 167.371094 172.945312 167.234375 C 172.609375 167.09375 172.3125 166.894531 172.054688 166.636719 C 171.796875 166.378906 171.597656 166.078125 171.460938 165.742188 C 171.320312 165.402344 171.25 165.050781 171.25 164.6875 C 171.25 164.320312 171.320312 163.96875 171.460938 163.632812 C 171.597656 163.292969 171.796875 162.996094 172.054688 162.738281 C 172.3125 162.480469 172.609375 162.28125 172.945312 162.140625 C 173.285156 162 173.632812 161.929688 174 161.929688 C 174.363281 161.929688 174.714844 162 175.050781 162.140625 C 175.386719 162.28125 175.683594 162.480469 175.941406 162.738281 C 176.199219 162.996094 176.398438 163.292969 176.539062 163.632812 C 176.675781 163.96875 176.746094 164.320312 176.746094 164.6875 Z M 176.746094 164.6875 " fill-opacity="1" fill-rule="nonzero"/><path fill="#ed1c24" d="M 192.902344 164.6875 C 192.902344 165.050781 192.832031 165.402344 192.691406 165.742188 C 192.554688 166.078125 192.355469 166.378906 192.097656 166.636719 C 191.839844 166.894531 191.542969 167.09375 191.207031 167.234375 C 190.871094 167.371094 190.519531 167.441406 190.15625 167.441406 C 189.789062 167.441406 189.441406 167.371094 189.101562 167.234375 C 188.765625 167.09375 188.46875 166.894531 188.210938 166.636719 C 187.953125 166.378906 187.753906 166.078125 187.617188 165.742188 C 187.476562 165.402344 187.40625 165.050781 187.40625 164.6875 C 187.40625 164.320312 187.476562 163.96875 187.617188 163.632812 C 187.753906 163.292969 187.953125 162.996094 188.210938 162.738281 C 188.46875 162.480469 188.765625 162.28125 189.101562 162.140625 C 189.441406 162 189.789062 161.929688 190.15625 161.929688 C 190.519531 161.929688 190.871094 162 191.207031 162.140625 C 191.542969 162.28125 191.839844 162.480469 192.097656 162.738281 C 192.355469 162.996094 192.554688 163.292969 192.691406 163.632812 C 192.832031 163.96875 192.902344 164.320312 192.902344 164.6875 Z M 192.902344 164.6875 " fill-opacity="1" fill-rule="nonzero"/><g clip-path="url(#735b37a50c)"><path stroke-linecap="butt" transform="matrix(0.869547, 0, 0, 0.869547, -171.498521, 37.480454)" fill="none" stroke-linejoin="miter" d="M 533.250109 43.498781 L 275.748028 43.498781 C 274.741757 43.503273 273.748963 43.606596 272.760661 43.808748 C 271.772359 44.010901 270.815503 44.307391 269.890093 44.69822 C 268.960191 45.089048 268.079704 45.56523 267.248631 46.126766 C 266.413067 46.692793 265.640395 47.330697 264.935106 48.04497 C 264.225326 48.763735 263.591914 49.5409 263.039363 50.380956 C 262.482321 51.221013 262.015123 52.105993 261.637772 53.035895 C 261.255928 53.970289 260.968422 54.931638 260.779746 55.91994 C 260.586578 56.903749 260.496732 57.905528 260.501224 58.911799 L 260.501224 532.088326 C 260.496732 533.094597 260.586578 534.091884 260.779746 535.080186 C 260.968422 536.068488 261.255928 537.029836 261.637772 537.964231 C 262.015123 538.894133 262.482321 539.779113 263.039363 540.619169 C 263.591914 541.459226 264.225326 542.236391 264.935106 542.955156 C 265.640395 543.669428 266.413067 544.307332 267.248631 544.87336 C 268.079704 545.434895 268.960191 545.911077 269.890093 546.301906 C 270.815503 546.692734 271.772359 546.989225 272.760661 547.191377 C 273.748963 547.39353 274.741757 547.496853 275.748028 547.501345 L 533.250109 547.501345 C 534.256381 547.496853 535.253667 547.39353 536.237477 547.191377 C 537.225779 546.989225 538.182635 546.692734 539.112537 546.301906 C 540.037947 545.911077 540.918434 545.434895 541.753999 544.87336 C 542.589563 544.307332 543.357743 543.669428 544.067524 542.955156 C 544.772812 542.236391 545.406224 541.459226 545.958774 540.619169 C 546.515817 539.779113 546.983015 538.894133 547.364859 537.964231 C 547.74221 537.029836 548.029716 536.068488 548.222884 535.080186 C 548.41156 534.091884 548.505898 533.094597 548.501406 532.088326 L 548.501406 58.911799 C 548.505898 57.905528 548.41156 56.903749 548.222884 55.91994 C 548.029716 54.931638 547.74221 53.970289 547.364859 53.035895 C 546.983015 52.105993 546.515817 51.221013 545.958774 50.380956 C 545.406224 49.5409 544.772812 48.763735 544.067524 48.04497 C 543.357743 47.330697 542.589563 46.692793 541.753999 46.126766 C 540.918434 45.56523 540.037947 45.089048 539.112537 44.69822 C 538.182635 44.307391 537.225779 44.010901 536.237477 43.808748 C 535.253667 43.606596 534.256381 43.503273 533.250109 43.498781 Z M 533.250109 43.498781 " stroke="#231f20" stroke-width="2" stroke-opacity="1" stroke-miterlimit="10"/></g><path fill="#231f20" d="M 85.035156 171.121094 L 279.117188 171.121094 L 279.117188 365.203125 L 85.035156 365.203125 Z M 85.035156 171.121094 " fill-opacity="0.2471" fill-rule="nonzero"/><path fill="#58595b" d="M 88.164062 174.25 L 275.988281 174.25 L 275.988281 362.074219 L 88.164062 362.074219 Z M 88.164062 174.25 " fill-opacity="1" fill-rule="nonzero"/><path stroke-linecap="round" transform="matrix(0.000000000000000046, -0.749609, 0.749609, 0.000000000000000046, 307.097752, 214.765799)" fill="none" stroke-linejoin="miter" d="M 6.998667 6.998308 L 137.00907 6.998308 " stroke="#231f20" stroke-width="14" stroke-opacity="1" stroke-miterlimit="4"/><path stroke-linecap="round" transform="matrix(-0.749609, 0.000000000000000425, -0.000000000000000425, -0.749609, 392.207807, 109.817772)" fill="none" stroke-linejoin="miter" d="M 4.498169 4.498956 L 107.499717 4.498956 " stroke="#231f20" stroke-width="9" stroke-opacity="1" stroke-miterlimit="4"/><g clip-path="url(#350c41c048)"><g clip-path="url(#b31734aab8)"><path fill="#d2232a" d="M 308.25 176.570312 L 584.296875 176.570312 L 584.296875 476.226562 L 308.25 476.226562 Z M 308.25 176.570312 " fill-opacity="1" fill-rule="nonzero"/></g></g><g clip-path="url(#5d5a54f92e)"><g clip-path="url(#c82c5216b2)"><path stroke-linecap="butt" transform="matrix(0.749609, 0, 0, 0.749609, 308.251548, 176.570302)" fill="none" stroke-linejoin="miter" d="M 7.001583 0.0000139175 L 360.998437 0.0000139175 C 362.858781 0.0000139175 364.635748 0.739983 365.948932 2.047955 C 367.262116 3.361139 368.002084 5.143317 368.002084 6.99845 L 368.002084 393.001556 C 368.002084 394.856689 367.262116 396.638867 365.948932 397.952051 C 364.635748 399.260024 362.858781 399.999992 360.998437 399.999992 L 7.001583 399.999992 C 5.141239 399.999992 3.364272 399.260024 2.051088 397.952051 C 0.737904 396.638867 -0.00206452 394.856689 -0.00206452 393.001556 L -0.00206452 6.99845 C -0.00206452 5.143317 0.737904 3.361139 2.051088 2.047955 C 3.364272 0.739983 5.141239 0.0000139175 7.001583 0.0000139175 " stroke="#231f20" stroke-width="10" stroke-opacity="1" stroke-miterlimit="4"/></g></g><g clip-path="url(#5941e333c2)"><path fill="#d2232a" d="M 312.429688 190.773438 L 461.601562 190.773438 L 391.75 106.820312 L 312.429688 106.820312 Z M 312.429688 190.773438 " fill-opacity="1" fill-rule="nonzero"/></g><path stroke-linecap="round" transform="matrix(-0.468581, -0.585588, 0.585293, -0.468344, 445.005134, 177.505085)" fill="none" stroke-linejoin="miter" d="M 1.998964 1.998696 L 121.94323 1.99943 " stroke="#231f20" stroke-width="4" stroke-opacity="1" stroke-miterlimit="4"/><path stroke-linecap="butt" transform="matrix(0.749592, 0.00509058, -0.00509058, 0.749592, 446.189861, 175.071117)" fill="none" stroke-linejoin="miter" d="M 0.0000103501 2.000015 L 184.006328 2.001083 " stroke="#231f20" stroke-width="4" stroke-opacity="1" stroke-miterlimit="4"/><path stroke-linecap="butt" transform="matrix(0.480065, 0.571916, -0.57415, 0.48194, 389.264384, 106.436967)" fill="none" stroke-linejoin="miter" d="M 0.0024866 2.000156 L 120.478396 2.000635 " stroke="#231f20" stroke-width="4" stroke-opacity="1" stroke-miterlimit="4"/><path stroke-linecap="butt" transform="matrix(0.747894, 0.000000000000000389, -0.00000000000000039, 0.749609, 305.074407, 105.319708)" fill="none" stroke-linejoin="miter" d="M -0.000252031 2.001848 L 109.25966 2.001848 " stroke="#231f20" stroke-width="4" stroke-opacity="1" stroke-miterlimit="4"/><g clip-path="url(#72424edff5)"><g clip-path="url(#8f3ab01b4d)"><path fill="#58595b" d="M 332.472656 214.769531 L 562.414062 214.769531 L 562.414062 291.792969 L 332.472656 291.792969 Z M 332.472656 214.769531 " fill-opacity="1" fill-rule="nonzero"/></g></g><g clip-path="url(#a758f8d6fc)"><g clip-path="url(#65bc675271)"><path stroke-linecap="butt" transform="matrix(0.748539, 0, 0, 0.751548, 332.482362, 214.768886)" fill="none" stroke-linejoin="miter" d="M 12.000014 0.000859059 L 294.409417 0.000859059 C 301.036908 0.000859059 306.406742 5.369988 306.406742 11.996939 L 306.406742 90.735505 C 306.406742 97.362456 301.036908 102.736782 294.409417 102.736782 L 12.000014 102.736782 C 5.372523 102.736782 -0.00252889 97.362456 -0.00252889 90.735505 L -0.00252889 11.996939 C -0.00252889 5.369988 5.372523 0.000859059 12.000014 0.000859059 " stroke="#000000" stroke-width="10" stroke-opacity="1" stroke-miterlimit="4"/></g></g><g clip-path="url(#5e9de3b251)"><path fill="#004aad" d="M 350.996094 326.492188 L 386.976562 326.492188 L 386.976562 356.851562 L 350.996094 356.851562 Z M 350.996094 326.492188 " fill-opacity="1" fill-rule="nonzero"/></g><g clip-path="url(#ef1e8fba4b)"><path stroke-linecap="butt" transform="matrix(0.749609, 0, 0, 0.754498, 350.999356, 326.492185)" fill="none" stroke-linejoin="miter" d="M 0.000859622 0.00000309097 L 47.989393 0.00000309097 L 47.989393 40.734891 L 0.000859622 40.734891 L 0.000859622 0.00000309097 " stroke="#5ce1e6" stroke-width="10" stroke-opacity="1" stroke-miterlimit="4"/></g><g clip-path="url(#aaabaa6f92)"><path fill="#004aad" d="M 386.976562 326.492188 L 422.957031 326.492188 L 422.957031 356.851562 L 386.976562 356.851562 Z M 386.976562 326.492188 " fill-opacity="1" fill-rule="nonzero"/></g><g clip-path="url(#8ed704f165)"><path stroke-linecap="butt" transform="matrix(0.749609, 0, 0, 0.754498, 386.980581, 326.492185)" fill="none" stroke-linejoin="miter" d="M -0.000149881 0.00000309097 L 47.988383 0.00000309097 L 47.988383 40.734891 L -0.000149881 40.734891 L -0.000149881 0.00000309097 " stroke="#5ce1e6" stroke-width="10" stroke-opacity="1" stroke-miterlimit="4"/></g><g clip-path="url(#1981388e27)"><path fill="#004aad" d="M 422.957031 326.492188 L 458.9375 326.492188 L 458.9375 356.851562 L 422.957031 356.851562 Z M 422.957031 326.492188 " fill-opacity="1" fill-rule="nonzero"/></g><g clip-path="url(#09f9c150fe)"><path stroke-linecap="butt" transform="matrix(0.749609, 0, 0, 0.754498, 422.961845, 326.492185)" fill="none" stroke-linejoin="miter" d="M -0.00121054 0.00000309097 L 47.987323 0.00000309097 L 47.987323 40.734891 L -0.00121054 40.734891 L -0.00121054 0.00000309097 " stroke="#5ce1e6" stroke-width="10" stroke-opacity="1" stroke-miterlimit="4"/></g><g clip-path="url(#2cb6453a99)"><path fill="#004aad" d="M 458.9375 326.492188 L 494.917969 326.492188 L 494.917969 356.851562 L 458.9375 356.851562 Z M 458.9375 326.492188 " fill-opacity="1" fill-rule="nonzero"/></g><g clip-path="url(#b17f2ece4e)"><path stroke-linecap="butt" transform="matrix(0.749609, 0, 0, 0.754498, 458.943104, 326.492185)" fill="none" stroke-linejoin="miter" d="M -0.00226481 0.00000309097 L 47.986268 0.00000309097 L 47.986268 40.734891 L -0.00226481 40.734891 L -0.00226481 0.00000309097 " stroke="#5ce1e6" stroke-width="10" stroke-opacity="1" stroke-miterlimit="4"/></g><g clip-path="url(#f91fa7d9e7)"><path fill="#004aad" d="M 494.917969 326.492188 L 530.902344 326.492188 L 530.902344 356.851562 L 494.917969 356.851562 Z M 494.917969 326.492188 " fill-opacity="1" fill-rule="nonzero"/></g><g clip-path="url(#258a278fbb)"><path stroke-linecap="butt" transform="matrix(0.749609, 0, 0, 0.754498, 494.924411, 326.492185)" fill="none" stroke-linejoin="miter" d="M 0.00182802 0.00000309097 L 47.98515 0.00000309097 L 47.98515 40.734891 L 0.00182802 40.734891 L 0.00182802 0.00000309097 " stroke="#5ce1e6" stroke-width="10" stroke-opacity="1" stroke-miterlimit="4"/></g><g clip-path="url(#4b5b92f030)"><path fill="#004aad" d="M 350.996094 357.035156 L 386.976562 357.035156 L 386.976562 387.394531 L 350.996094 387.394531 Z M 350.996094 357.035156 " fill-opacity="1" fill-rule="nonzero"/></g><g clip-path="url(#f90f2f5f23)"><path stroke-linecap="butt" transform="matrix(0.749609, 0, 0, 0.754498, 350.999356, 357.035086)" fill="none" stroke-linejoin="miter" d="M 0.000859622 0.0000927325 L 47.989393 0.0000927325 L 47.989393 40.734981 L 0.000859622 40.734981 L 0.000859622 0.0000927325 " stroke="#5ce1e6" stroke-width="10" stroke-opacity="1" stroke-miterlimit="4"/></g><g clip-path="url(#33811dfe85)"><path fill="#004aad" d="M 386.976562 357.035156 L 422.957031 357.035156 L 422.957031 387.394531 L 386.976562 387.394531 Z M 386.976562 357.035156 " fill-opacity="1" fill-rule="nonzero"/></g><g clip-path="url(#b5b6d85f0b)"><path stroke-linecap="butt" transform="matrix(0.749609, 0, 0, 0.754498, 386.980581, 357.035086)" fill="none" stroke-linejoin="miter" d="M -0.000149881 0.0000927325 L 47.988383 0.0000927325 L 47.988383 40.734981 L -0.000149881 40.734981 L -0.000149881 0.0000927325 " stroke="#5ce1e6" stroke-width="10" stroke-opacity="1" stroke-miterlimit="4"/></g><g clip-path="url(#03f20467ca)"><path fill="#004aad" d="M 422.957031 357.035156 L 458.9375 357.035156 L 458.9375 387.394531 L 422.957031 387.394531 Z M 422.957031 357.035156 " fill-opacity="1" fill-rule="nonzero"/></g><g clip-path="url(#93864e6b70)"><path stroke-linecap="butt" transform="matrix(0.749609, 0, 0, 0.754498, 422.961845, 357.035086)" fill="none" stroke-linejoin="miter" d="M -0.00121054 0.0000927325 L 47.987323 0.0000927325 L 47.987323 40.734981 L -0.00121054 40.734981 L -0.00121054 0.0000927325 " stroke="#5ce1e6" stroke-width="10" stroke-opacity="1" stroke-miterlimit="4"/></g><g clip-path="url(#5f8bd5ca48)"><path fill="#004aad" d="M 458.9375 357.035156 L 494.917969 357.035156 L 494.917969 387.394531 L 458.9375 387.394531 Z M 458.9375 357.035156 " fill-opacity="1" fill-rule="nonzero"/></g><g clip-path="url(#863b91ce51)"><path stroke-linecap="butt" transform="matrix(0.749609, 0, 0, 0.754498, 458.943104, 357.035086)" fill="none" stroke-linejoin="miter" d="M -0.00226481 0.0000927325 L 47.986268 0.0000927325 L 47.986268 40.734981 L -0.00226481 40.734981 L -0.00226481 0.0000927325 " stroke="#5ce1e6" stroke-width="10" stroke-opacity="1" stroke-miterlimit="4"/></g><g clip-path="url(#b075b26d23)"><path fill="#004aad" d="M 494.917969 357.035156 L 530.902344 357.035156 L 530.902344 387.394531 L 494.917969 387.394531 Z M 494.917969 357.035156 " fill-opacity="1" fill-rule="nonzero"/></g><g clip-path="url(#c0974b21b0)"><path stroke-linecap="butt" transform="matrix(0.749609, 0, 0, 0.754498, 494.924411, 357.035086)" fill="none" stroke-linejoin="miter" d="M 0.00182802 0.0000927325 L 47.98515 0.0000927325 L 47.98515 40.734981 L 0.00182802 40.734981 L 0.00182802 0.0000927325 " stroke="#5ce1e6" stroke-width="10" stroke-opacity="1" stroke-miterlimit="4"/></g><g clip-path="url(#2e4cc4327b)"><path fill="#004aad" d="M 350.996094 398.628906 L 386.976562 398.628906 L 386.976562 428.988281 L 350.996094 428.988281 Z M 350.996094 398.628906 " fill-opacity="1" fill-rule="nonzero"/></g><g clip-path="url(#18ee8b56cf)"><path stroke-linecap="butt" transform="matrix(0.749609, 0, 0, 0.754498, 350.999356, 398.628195)" fill="none" stroke-linejoin="miter" d="M 0.000859622 0.000942631 L 47.989393 0.000942631 L 47.989393 40.735831 L 0.000859622 40.735831 L 0.000859622 0.000942631 " stroke="#5ce1e6" stroke-width="10" stroke-opacity="1" stroke-miterlimit="4"/></g><g clip-path="url(#a303d7eaf9)"><path fill="#004aad" d="M 386.960938 398.628906 L 422.941406 398.628906 L 422.941406 428.988281 L 386.960938 428.988281 Z M 386.960938 398.628906 " fill-opacity="1" fill-rule="nonzero"/></g><g clip-path="url(#f02b48a209)"><path stroke-linecap="butt" transform="matrix(0.749609, 0, 0, 0.754498, 386.96534, 398.628195)" fill="none" stroke-linejoin="miter" d="M -0.0006616 0.000942631 L 47.987872 0.000942631 L 47.987872 40.735831 L -0.0006616 40.735831 L -0.0006616 0.000942631 " stroke="#5ce1e6" stroke-width="10" stroke-opacity="1" stroke-miterlimit="4"/></g><g clip-path="url(#26aa213245)"><g clip-path="url(#817eabdb64)"><path fill="#fff359" d="M 505.027344 398.628906 L 530.902344 398.628906 L 530.902344 424.503906 L 505.027344 424.503906 Z M 505.027344 398.628906 " fill-opacity="1" fill-rule="nonzero"/></g></g><g clip-path="url(#2a4149ea27)"><g clip-path="url(#75541dcaa4)"><path stroke-linecap="butt" transform="matrix(0.760129, 0, 0, 0.760129, 505.026358, 398.628195)" fill="none" stroke-linejoin="miter" d="M 17.257821 0.000935647 C 7.725107 0.000935647 0.00129701 7.724746 0.00129701 17.257459 C 0.00129701 26.790173 7.725107 34.513983 17.257821 34.513983 C 26.790534 34.513983 34.514344 26.790173 34.514344 17.257459 C 34.514344 7.724746 26.790534 0.000935647 17.257821 0.000935647 " stroke="#000000" stroke-width="8" stroke-opacity="1" stroke-miterlimit="4"/></g></g><g clip-path="url(#bbb30ca1a3)"><g clip-path="url(#e5ddd12b34)"><path fill="#58595b" d="M 368.984375 442.1875 L 440.199219 442.1875 L 440.199219 459.429688 L 368.984375 459.429688 Z M 368.984375 442.1875 " fill-opacity="1" fill-rule="nonzero"/></g></g><g clip-path="url(#184e21ac70)"><g clip-path="url(#ec58ea0bcc)"><path stroke-linecap="butt" transform="matrix(0.750597, 0, 0, 0.737091, 368.985259, 442.189462)" fill="none" stroke-linejoin="miter" d="M 5.999254 0.00263833 L 88.875979 0.00263833 C 92.191048 0.00263833 94.87641 2.684211 94.87641 5.996429 L 94.87641 17.390462 C 94.87641 20.70268 92.191048 23.389552 88.875979 23.389552 L 5.999254 23.389552 C 2.684185 23.389552 -0.0011772 20.70268 -0.0011772 17.390462 L -0.0011772 5.996429 C -0.0011772 2.684211 2.684185 0.00263833 5.999254 0.00263833 " stroke="#000000" stroke-width="8" stroke-opacity="1" stroke-miterlimit="4"/></g></g><g clip-path="url(#5cc656742e)"><g clip-path="url(#7054fd2efa)"><path fill="#58595b" d="M 453.007812 442.1875 L 524.222656 442.1875 L 524.222656 459.429688 L 453.007812 459.429688 Z M 453.007812 442.1875 " fill-opacity="1" fill-rule="nonzero"/></g></g><g clip-path="url(#8368f44edd)"><g clip-path="url(#75d5542fc1)"><path stroke-linecap="butt" transform="matrix(0.750597, 0, 0, 0.737091, 453.008757, 442.189462)" fill="none" stroke-linejoin="miter" d="M 5.999173 0.00263833 L 88.875898 0.00263833 C 92.190967 0.00263833 94.876329 2.684211 94.876329 5.996429 L 94.876329 17.390462 C 94.876329 20.70268 92.190967 23.389552 88.875898 23.389552 L 5.999173 23.389552 C 2.684104 23.389552 -0.00125785 20.70268 -0.00125785 17.390462 L -0.00125785 5.996429 C -0.00125785 2.684211 2.684104 0.00263833 5.999173 0.00263833 " stroke="#000000" stroke-width="8" stroke-opacity="1" stroke-miterlimit="4"/></g></g></svg>